<?xml version="1.0" encoding="UTF-8"?>
<svg xmlns="http://www.w3.org/2000/svg" xmlns:xlink="http://www.w3.org/1999/xlink" width="10px" height="11px" viewBox="0 0 10 11" version="1.1">
<g id="surface1">
<path style=" stroke:none;fill-rule:evenodd;fill:rgb(0%,0%,0%);fill-opacity:1;" d="M 7.839844 4.410156 L 2.160156 4.410156 L 2.160156 8.199219 C 2.160156 8.929688 2.796875 9.519531 3.582031 9.519531 L 6.417969 9.519531 C 7.203125 9.519531 7.839844 8.929688 7.839844 8.199219 Z M 0.742188 3.089844 L 0.742188 8.199219 C 0.742188 9.65625 2.011719 10.839844 3.582031 10.839844 L 6.417969 10.839844 C 7.988281 10.839844 9.257812 9.65625 9.257812 8.199219 L 9.257812 3.089844 Z M 0.742188 3.089844 "/>
<path style=" stroke:none;fill-rule:evenodd;fill:rgb(0%,0%,0%);fill-opacity:1;" d="M 3.558594 3.050781 L 6.441406 3.050781 L 6.441406 2.78125 C 6.441406 2.046875 5.796875 1.449219 5 1.449219 C 4.203125 1.449219 3.558594 2.046875 3.558594 2.78125 Z M 7.886719 4.382812 L 7.886719 2.78125 C 7.886719 1.3125 6.589844 0.117188 5 0.117188 C 3.410156 0.117188 2.113281 1.3125 2.113281 2.78125 L 2.113281 4.382812 Z M 7.886719 4.382812 "/>
<path style=" stroke:none;fill-rule:nonzero;fill:rgb(0%,0%,0%);fill-opacity:1;" d="M 0.0546875 3.089844 L 9.945312 3.089844 L 9.945312 4.382812 L 0.0546875 4.382812 Z M 0.0546875 3.089844 "/>
</g>
</svg>
